<svg width="27" height="27" viewBox="0 0 27 27" fill="none" xmlns="http://www.w3.org/2000/svg">
<path d="M7.14788 26.9997C6.82761 27.0017 6.51059 26.9928 6.19825 26.9734C3.69943 26.8176 1.46528 25.9923 0.268787 24.377C-0.159729 23.7984 -0.0555971 22.9974 0.437202 22.564C0.930172 22.1307 1.7505 22.0993 2.50579 22.594C3.80972 23.4483 5.24228 23.1464 6.17496 22.2379C7.1078 21.3294 7.53004 19.846 6.60541 18.1327C5.511 16.1048 4.73766 12.5844 5.45528 9.10073C6.1729 5.617 8.47921 2.19029 13.4323 0.689331C15.3435 0.110229 17.9324 -0.277185 20.377 0.246984C22.9179 0.754072 25.8491 2.25261 26.4795 3.88858C25.9514 3.3759 25.3696 3.01497 24.7552 2.74665C25.8003 3.95379 26.567 5.61631 26.8556 7.8345L27 8.9447L26.0682 8.33905C25.4686 7.94927 24.893 7.56567 24.3502 7.27756C24.5008 7.61639 24.6378 8.04039 24.7915 8.59185C24.158 7.71535 23.4367 7.1288 22.5879 6.77584C22.0608 6.80486 21.5402 7.05667 20.9203 7.70467C20.2719 8.3825 19.8859 9.55663 19.6379 11.0321C19.3899 12.5077 19.2691 14.2593 19.0289 16.0452C18.5482 19.617 17.5496 23.4237 13.9057 25.3373C11.7959 26.4451 9.39031 26.9862 7.14782 26.9998L7.14788 26.9997ZM7.14086 25.9605C9.22247 25.9458 11.486 25.4374 13.432 24.4156C16.6514 22.7249 17.5421 19.3874 18.0108 15.9052C18.2451 14.164 18.3639 12.4111 18.6249 10.8582C18.7001 10.4109 18.7868 9.97873 18.8929 9.56656C18.0109 9.56425 17.3369 10.0459 16.512 10.9928C16.9336 9.23806 17.1965 8.88469 17.9795 7.78742C16.3684 8.2626 14.5175 9.792 13.3581 11.484C13.1711 9.1732 14.5126 7.35402 15.2577 6.64104C13.8204 7.46019 11.7916 9.03777 10.4266 11.7567C10.3686 9.36627 11.1077 6.6943 12.5075 5.03634C10.5371 5.702 8.7984 10.7761 7.63092 12.4011C6.88647 10.4844 7.46262 7.26065 8.54846 4.89272C7.42791 6.21053 6.78513 7.74178 6.46155 9.31249C5.80364 12.5059 6.56145 15.8817 7.50772 17.6354C8.62382 19.7035 8.13085 21.7755 6.88829 22.9859C5.64556 24.1962 3.64251 24.5764 1.94694 23.4657C1.45825 23.1454 1.22259 23.2503 1.11195 23.3477C1.00119 23.445 0.954379 23.5693 1.09162 23.7547C2.01111 24.9961 3.95382 25.7929 6.26167 25.9368C6.55009 25.9548 6.8437 25.9628 7.14103 25.9607L7.14086 25.9605Z" fill="black"/>
</svg>
