<svg width="260" height="112" viewBox="0 0 260 112" fill="none" xmlns="http://www.w3.org/2000/svg">
<path d="M57.768 29.944C58.9627 30.1147 59.7733 30.4773 60.2 31.032C60.6693 31.5867 60.904 32.312 60.904 33.208C60.904 36.152 59.3253 37.5173 56.168 37.304L53.928 37.112C51.4107 36.8987 48.8933 36.728 46.376 36.6C43.9013 36.472 41.2987 36.408 38.568 36.408H35.688C35.176 42.7227 34.6427 48.4827 34.088 53.688L45.096 53.496C46.6747 53.496 47.72 53.7733 48.232 54.328C48.7867 54.8827 49.064 55.6293 49.064 56.568C49.064 58.0187 48.6373 59.1707 47.784 60.024C46.9307 60.8347 45.7147 61.24 44.136 61.24H33.192L32.808 63.992C31.912 71.032 29.992 76.0453 27.048 79.032C24.1467 82.0187 20.136 83.512 15.016 83.512C12.1147 83.512 9.448 82.8933 7.016 81.656C4.584 80.376 2.792 78.84 1.64 77.048C1.17067 76.3227 0.936 75.448 0.936 74.424C0.936 73.4 1.17067 72.504 1.64 71.736C2.152 70.968 2.77067 70.584 3.496 70.584C4.008 70.584 4.49867 70.7547 4.968 71.096C5.48 71.4373 6.12 72.0987 6.888 73.08C8.936 75.768 11.4747 77.112 14.504 77.112C16.936 77.112 18.9627 76.1307 20.584 74.168C22.248 72.1627 23.3147 69.0267 23.784 64.76L24.168 61.24H21.096C20.1147 61.24 19.2613 60.9627 18.536 60.408C17.8533 59.8533 17.512 59.064 17.512 58.04C17.512 56.7173 17.8533 55.7147 18.536 55.032C19.2187 54.3067 20.2213 53.944 21.544 53.944C22.7387 53.944 23.912 53.9227 25.064 53.88C25.576 49.1867 26.1307 43.4907 26.728 36.792C22.12 37.2187 18.8773 37.9653 17 39.032C15.1227 40.0987 14.184 41.6773 14.184 43.768C14.184 45.2187 14.6107 46.6053 15.464 47.928C15.72 48.312 15.848 48.696 15.848 49.08C15.848 49.848 15.4213 50.5307 14.568 51.128C13.7147 51.6827 12.7547 51.96 11.688 51.96C10.536 51.96 9.55467 51.6187 8.744 50.936C8.232 50.5093 7.74133 49.6347 7.272 48.312C6.80267 46.9893 6.568 45.5173 6.568 43.896C6.568 38.6053 9.27733 34.7653 14.696 32.376C20.1573 29.9867 28.1147 28.792 38.568 28.792C45.8213 28.792 52.2213 29.176 57.768 29.944ZM59.8255 83.32C57.3082 83.32 55.1535 82.7013 53.3615 81.464C51.6122 80.184 50.2895 78.52 49.3935 76.472C48.4975 74.424 48.0495 72.2267 48.0495 69.88C48.0495 66.6373 48.6468 63.7573 49.8415 61.24C51.0788 58.68 52.7428 56.696 54.8335 55.288C56.9242 53.8373 59.2708 53.112 61.8735 53.112C64.3908 53.112 66.5455 53.752 68.3375 55.032C70.1295 56.2693 71.4735 57.912 72.3695 59.96C73.2655 62.008 73.7135 64.2053 73.7135 66.552C73.7135 69.7947 73.0948 72.696 71.8575 75.256C70.6202 77.7733 68.9348 79.7573 66.8015 81.208C64.7108 82.616 62.3855 83.32 59.8255 83.32ZM60.5295 76.408C61.9802 76.408 63.1962 75.6187 64.1775 74.04C65.2015 72.4613 65.7135 70.1573 65.7135 67.128C65.7135 64.7813 65.2868 63.0107 64.4335 61.816C63.5802 60.6213 62.5562 60.024 61.3615 60.024C59.8255 60.024 58.5455 60.8133 57.5215 62.392C56.5402 63.928 56.0495 66.232 56.0495 69.304C56.0495 71.736 56.4762 73.528 57.3295 74.68C58.1828 75.832 59.2495 76.408 60.5295 76.408ZM114.008 68.728C114.562 68.728 114.989 68.984 115.288 69.496C115.629 70.008 115.8 70.712 115.8 71.608C115.8 73.3147 115.394 74.6373 114.584 75.576C112.706 77.7947 110.637 79.6507 108.376 81.144C106.157 82.5947 103.64 83.32 100.824 83.32C98.6475 83.32 96.7062 82.9147 94.9995 82.104C93.3355 81.2933 92.0128 80.1413 91.0315 78.648C88.5995 81.72 85.7195 83.256 82.3915 83.256C80.0448 83.256 78.1888 82.5733 76.8235 81.208C75.4582 79.8427 74.7755 78.0293 74.7755 75.768C74.7755 73.6347 75.2662 71.9067 76.2475 70.584C77.2288 69.2613 78.6155 68.6 80.4075 68.6C81.9435 68.6 82.7115 69.176 82.7115 70.328C82.7115 70.6267 82.6688 71.16 82.5835 71.928C82.4555 73.464 82.3915 74.3387 82.3915 74.552C82.3915 75.832 82.9462 76.472 84.0555 76.472C84.8662 76.472 85.6342 76.0027 86.3595 75.064C87.1275 74.0827 87.7462 72.76 88.2155 71.096C88.7275 69.432 88.9835 67.5973 88.9835 65.592C88.9835 64.056 88.7915 62.776 88.4075 61.752C88.0235 60.6853 87.5542 60.152 86.9995 60.152C86.5302 60.152 86.1888 60.28 85.9755 60.536C85.7622 60.7493 85.5488 61.1333 85.3355 61.688C85.0795 62.3707 84.7382 62.9253 84.3115 63.352C83.8848 63.736 83.1382 63.928 82.0715 63.928C81.1328 63.928 80.3862 63.608 79.8315 62.968C79.2768 62.2853 78.9995 61.2613 78.9995 59.896C78.9995 57.72 79.6608 56.0133 80.9835 54.776C82.3062 53.5387 84.0128 52.92 86.1035 52.92C87.8955 52.92 89.5168 53.368 90.9675 54.264C92.4182 55.1173 93.5275 56.376 94.2955 58.04C95.5755 56.3333 97.0048 55.0533 98.5835 54.2C100.205 53.3467 101.784 52.92 103.32 52.92C104.984 52.92 106.242 53.304 107.096 54.072C107.992 54.84 108.44 56.0773 108.44 57.784C108.44 59.704 108.077 61.2187 107.352 62.328C106.626 63.3947 105.752 63.928 104.728 63.928C103.789 63.928 103.149 63.736 102.808 63.352C102.466 62.968 102.21 62.4133 102.04 61.688C101.954 61.176 101.826 60.792 101.656 60.536C101.485 60.28 101.186 60.152 100.76 60.152C100.248 60.152 99.6928 60.6427 99.0955 61.624C98.5408 62.5627 98.0502 63.8213 97.6235 65.4C97.2395 66.9787 97.0475 68.6213 97.0475 70.328C97.0475 72.3333 97.5168 73.8907 98.4555 75C99.4368 76.0667 100.76 76.6 102.424 76.6C104.088 76.6 105.645 76.0453 107.096 74.936C108.589 73.784 110.317 72.0133 112.28 69.624C112.792 69.0267 113.368 68.728 114.008 68.728ZM139.491 68.728C140.046 68.728 140.472 68.984 140.771 69.496C141.112 70.008 141.283 70.712 141.283 71.608C141.283 73.3147 140.878 74.6373 140.067 75.576C138.232 77.8373 136.227 79.6933 134.051 81.144C131.875 82.5947 129.379 83.32 126.563 83.32C117.859 83.32 113.507 77.1973 113.507 64.952C113.507 63.0747 113.571 61.176 113.699 59.256H111.203C109.923 59.256 109.048 59.0213 108.579 58.552C108.152 58.0827 107.939 57.336 107.939 56.312C107.939 53.9227 108.899 52.728 110.819 52.728H114.467C115.192 48.0347 116.302 43.7467 117.795 39.864C119.288 35.9813 121.08 32.888 123.171 30.584C125.304 28.28 127.587 27.128 130.019 27.128C131.811 27.128 133.219 27.9173 134.243 29.496C135.267 31.0747 135.779 33.0587 135.779 35.448C135.779 42.0613 133.006 47.8213 127.459 52.728H134.627C135.31 52.728 135.8 52.8773 136.099 53.176C136.398 53.4747 136.547 54.0293 136.547 54.84C136.547 57.784 134.136 59.256 129.315 59.256H121.507C121.422 61.3893 121.379 63.0533 121.379 64.248C121.379 68.6853 121.891 71.8 122.915 73.592C123.982 75.384 125.646 76.28 127.907 76.28C129.742 76.28 131.363 75.7253 132.771 74.616C134.179 73.5067 135.843 71.8427 137.763 69.624C138.275 69.0267 138.851 68.728 139.491 68.728ZM128.291 33.272C127.651 33.272 126.926 34.0827 126.115 35.704C125.347 37.2827 124.6 39.5013 123.875 42.36C123.192 45.176 122.616 48.312 122.147 51.768C124.664 49.592 126.542 47.16 127.779 44.472C129.059 41.7413 129.699 39.2667 129.699 37.048C129.699 34.5307 129.23 33.272 128.291 33.272ZM143.944 83.32C141.299 83.32 139.187 82.36 137.608 80.44C136.029 78.52 135.24 76.0027 135.24 72.888C135.24 69.4747 136.029 66.2533 137.608 63.224C139.187 60.152 141.277 57.6987 143.88 55.864C146.525 53.9867 149.32 53.048 152.264 53.048C153.203 53.048 153.821 53.24 154.12 53.624C154.461 53.9653 154.739 54.6053 154.952 55.544C155.848 55.3733 156.787 55.288 157.768 55.288C159.859 55.288 160.904 56.0347 160.904 57.528C160.904 58.424 160.584 60.5573 159.944 63.928C158.963 68.8347 158.472 72.248 158.472 74.168C158.472 74.808 158.621 75.32 158.92 75.704C159.261 76.088 159.688 76.28 160.2 76.28C161.011 76.28 161.992 75.768 163.144 74.744C164.296 73.6773 165.853 71.9707 167.816 69.624C168.328 69.0267 168.904 68.728 169.544 68.728C170.099 68.728 170.525 68.984 170.824 69.496C171.165 70.008 171.336 70.712 171.336 71.608C171.336 73.3147 170.931 74.6373 170.12 75.576C168.371 77.752 166.515 79.5867 164.552 81.08C162.589 82.5733 160.691 83.32 158.856 83.32C157.448 83.32 156.147 82.8507 154.952 81.912C153.8 80.9307 152.925 79.608 152.328 77.944C150.109 81.528 147.315 83.32 143.944 83.32ZM146.248 76.856C147.187 76.856 148.083 76.3013 148.936 75.192C149.789 74.0827 150.408 72.6107 150.792 70.776L153.16 59C151.368 59.0427 149.704 59.7253 148.168 61.048C146.675 62.328 145.48 64.0347 144.584 66.168C143.688 68.3013 143.24 70.5627 143.24 72.952C143.24 74.2747 143.496 75.256 144.008 75.896C144.563 76.536 145.309 76.856 146.248 76.856ZM174.967 48.952C173.175 48.952 171.831 48.5467 170.935 47.736C170.039 46.8827 169.591 45.7093 169.591 44.216C169.591 42.7227 170.167 41.4853 171.319 40.504C172.513 39.48 173.985 38.968 175.735 38.968C177.313 38.968 178.593 39.352 179.575 40.12C180.556 40.888 181.047 41.976 181.047 43.384C181.047 45.0907 180.492 46.456 179.383 47.48C178.273 48.4613 176.801 48.952 174.967 48.952ZM168.823 83.32C167.457 83.32 166.519 83.0427 166.007 82.488C165.495 81.9333 165.239 81.0587 165.239 79.864C165.239 79.5227 165.281 78.9253 165.367 78.072C166.049 70.264 167.18 63.16 168.759 56.76C169.1 55.4373 169.655 54.52 170.423 54.008C171.233 53.4533 172.513 53.176 174.263 53.176C176.097 53.176 177.015 53.9227 177.015 55.416C177.015 55.6293 176.972 56.0347 176.887 56.632C174.967 65.7627 173.815 73.4213 173.431 79.608C173.345 80.9733 172.94 81.9333 172.215 82.488C171.489 83.0427 170.359 83.32 168.823 83.32Z" fill="black"/>
<path d="M199.708 88.9992C198.736 89.0052 197.773 88.9784 196.824 88.9202C189.235 88.4528 182.45 85.9769 178.816 81.1311C177.515 79.3953 177.831 76.9921 179.328 75.6921C180.825 74.392 183.316 74.298 185.61 75.7821C189.57 78.3449 193.921 77.4391 196.754 74.7137C199.587 71.9881 200.869 67.5379 198.061 62.398C194.737 56.3144 192.388 45.7532 194.568 35.3022C196.747 24.851 203.752 14.5709 218.794 10.068C224.599 8.3307 232.461 7.16845 239.886 8.74095C247.603 10.2622 256.505 14.7578 258.419 19.6657C256.815 18.1277 255.049 17.0449 253.183 16.24C256.357 19.8614 258.685 24.8489 259.561 31.5035L260 34.8341L257.17 33.0172C255.349 31.8478 253.601 30.697 251.952 29.8327C252.41 30.8492 252.826 32.1212 253.293 33.7755C251.369 31.146 249.178 29.3864 246.6 28.3275C244.999 28.4146 243.418 29.17 241.536 31.114C239.567 33.1475 238.394 36.6699 237.641 41.0964C236.888 45.5231 236.521 50.7778 235.791 56.1355C234.332 66.8511 231.299 78.2712 220.232 84.0118C213.825 87.3354 206.519 88.9587 199.708 88.9995L199.708 88.9992ZM199.687 85.8815C206.009 85.8374 212.883 84.3123 218.793 81.2467C228.571 76.1747 231.276 66.1622 232.699 55.7155C233.411 50.492 233.772 45.2332 234.565 40.5747C234.793 39.2326 235.056 37.9362 235.378 36.6997C232.7 36.6927 230.653 38.1377 228.147 40.9784C229.428 35.7142 230.226 34.6541 232.604 31.3623C227.711 32.7878 222.09 37.376 218.569 42.452C218.001 35.5196 222.075 30.062 224.338 27.9231C219.973 30.3806 213.812 35.1133 209.666 43.27C209.49 36.0988 211.734 28.0829 215.986 23.109C210.001 25.106 204.721 40.3283 201.175 45.2032C198.914 39.4531 200.664 29.782 203.962 22.6782C200.559 26.6316 198.607 31.2253 197.624 35.9375C195.626 45.5176 197.927 55.6452 200.801 60.9061C204.191 67.1106 202.694 73.3266 198.92 76.9577C195.146 80.5887 189.062 81.7292 183.913 78.397C182.429 77.4363 181.713 77.751 181.377 78.043C181.041 78.3351 180.898 78.7078 181.315 79.264C184.108 82.9882 190.008 85.3788 197.017 85.8104C197.893 85.8644 198.785 85.8883 199.688 85.882L199.687 85.8815Z" fill="black"/>
</svg>
